<svg width="88" height="80" viewBox="0 0 88 80" fill="none" xmlns="http://www.w3.org/2000/svg">
<path d="M83.8362 50.8801C83.8362 50.8801 86.1611 52.5041 86.5517 53.6148L85.8278 53.6608C85.8278 53.6608 87.1952 55.2311 87.2182 56.3189C87.2182 56.3189 85.893 55.4073 85.3376 55.9627C84.7822 56.518 83.8362 50.8801 83.8362 50.8801Z" fill="#FDFDFD"/>
<path d="M30.5403 10.7473C30.5403 10.7473 30.1573 9.5102 30.9578 8.23478C30.9578 8.23478 31.088 9.05059 31.6817 9.34167C31.6817 9.34167 31.2719 7.28874 32.3175 6.15886C32.3175 6.15886 32.1796 7.25044 32.666 7.6143C32.666 7.6143 32.7694 5.94055 33.7806 4.81067C33.7806 4.81067 32.4324 7.9705 36.3544 9.01612L30.5403 10.7435V10.7473Z" fill="#FDFDFD"/>
<path d="M33.9565 8.17009V6.33164C33.9565 6.33164 34.0829 6.82573 34.6038 7.26619C34.6038 7.26619 35.9597 6.24738 35.3162 4.40894C35.3162 4.40894 36.2776 6.23206 35.998 7.09766L36.7181 6.28951C36.7181 6.28951 36.8368 7.293 36.1589 8.17009C35.4771 9.04718 33.9565 8.67183 33.9565 8.67183V8.17009Z" fill="#FDFDFD"/>
<path d="M18.3869 61.5051C18.3869 61.5051 18.3869 61.5626 18.3793 61.6698C18.3295 62.7078 17.9618 68.2576 16.0199 68.6981C16.0199 68.6981 17.3604 68.5372 17.8699 67.5643C17.8699 67.5643 17.8699 70.1075 15.3879 70.594C15.3879 70.594 17.0694 70.8123 18.1648 69.782C18.1648 69.782 17.912 70.8621 17.4064 71.134C17.4064 71.134 18.8772 70.5403 20.1411 68.9164" fill="#FDFDFD"/>
<path d="M69.5498 56.9122C69.5498 56.9122 69.5498 56.9888 69.5575 57.1305C69.6073 58.4864 69.975 65.7521 71.9169 66.3304C71.9169 66.3304 70.5763 66.1198 70.0669 64.8444C70.0669 64.8444 70.0669 68.1727 72.5488 68.8085C72.5488 68.8085 70.8674 69.0919 69.772 67.7476C69.772 67.7476 70.0248 69.1647 70.5304 69.5171C70.5304 69.5171 69.0596 68.7396 67.7957 66.6139" fill="#FDFDFD"/>
<path d="M32.03 9.09186C32.03 9.09186 26.9091 9.09186 25.5609 5.60647C24.2127 2.12492 22.3972 6.52953 21.93 9.52466C21.4627 12.5198 21.4933 19.3297 21.4933 19.3297C21.4933 19.3297 31.2333 16.3001 32.03 9.09186Z" fill="#FDFDFD"/>
<path d="M55.884 9.09186C55.884 9.09186 61.0049 9.09186 62.3531 5.60647C63.7013 2.12492 65.5168 6.52953 65.984 9.52466C66.4513 12.5198 66.4207 19.3297 66.4207 19.3297C66.4207 19.3297 56.6807 16.3001 55.884 9.09186Z" fill="#FDFDFD"/>
<path d="M47.3392 2.42445C45.9795 0 43.984 0 43.984 0C43.984 0 41.9885 0 40.6288 2.42445C39.2691 4.8489 35.6995 9.46417 35.6995 9.46417H52.2724C52.2724 9.46417 48.7027 4.8489 47.343 2.42445H47.3392Z" fill="#FDFDFD"/>
<path d="M50.7016 8.16827C50.7016 8.16827 52.8158 7.40608 52.9614 5.73233L53.3252 7.01541C53.3252 7.01541 54.344 6.11534 55.2939 5.73233C55.2939 5.73233 53.735 7.49035 54.7309 7.90783C55.6309 8.28318 57.0864 7.20309 57.4158 6.09236C57.4502 5.97363 57.4732 5.85106 57.4809 5.73233C57.5537 4.51436 57.9711 9.13729 55.9029 10.7498C53.8346 12.3584 50.6978 8.1721 50.6978 8.1721L50.7016 8.16827Z" fill="#FDFDFD"/>
<path d="M65.2945 18.3864C65.2945 18.3864 66.8074 18.103 68.7799 21.3739C68.7799 21.3739 68.1058 20.5543 67.0372 20.5849C67.0372 20.5849 69.3468 22.2472 69.4272 24.166C69.4272 24.166 68.9408 22.6723 67.9679 22.7566C67.9679 22.7566 68.9944 25.97 69.9673 26.5637C69.9673 26.5637 69.1131 26.2037 67.853 24.664C66.5929 23.1243 65.0532 21.6305 65.0532 21.6305L65.2945 18.3864Z" fill="#FDFDFD"/>
<path d="M22.8339 17.3624C22.8339 17.3624 19.6319 17.9676 18.9004 20.0397C18.9004 20.0397 20.4209 19.2468 20.9763 19.4077C20.9763 19.4077 19.9767 22.2458 18.9004 22.4718C18.9004 22.4718 19.8924 22.2343 21.3593 20.9551C22.8263 19.6796 22.8339 17.3624 22.8339 17.3624Z" fill="#FDFDFD"/>
<path d="M45.5771 23.9859C45.5771 24.0165 45.5771 24.0433 45.5771 24.0701C45.5771 24.0701 45.5005 27.184 47.2968 28.8769C47.2968 28.8769 46.7606 27.6168 46.4771 26.4218C47.6032 27.8275 49.6753 28.7697 52.0461 28.7697C55.6196 28.7697 58.5152 26.6248 58.5152 23.9821H45.5732L45.5771 23.9859Z" fill="#FDFDFD"/>
<path d="M42.3522 23.9859C42.3522 24.0165 42.3522 24.0433 42.3522 24.0701C42.3522 24.0701 42.4288 27.184 40.6325 28.8769C40.6325 28.8769 41.1687 27.6168 41.4521 26.4218C40.3261 27.8275 38.254 28.7697 35.8831 28.7697C32.3096 28.7697 29.4141 26.6248 29.4141 23.9821H42.356L42.3522 23.9859Z" fill="#FDFDFD"/>
<path d="M59.2007 37.3482C59.2007 37.5665 59.0284 37.7465 58.8177 37.7465H30.3064C30.0957 37.7465 29.9233 37.5665 29.9233 37.3482C29.9233 37.1298 30.0957 36.9498 30.3064 36.9498H58.8177C59.0284 36.9498 59.2007 37.1298 59.2007 37.3482Z" fill="#FDFDFD"/>
<path d="M51.0198 36.9493L53.2757 34.5938L56.2172 37.6655L51.0198 36.9493Z" fill="#FDFDFD"/>
<path d="M32.9111 36.9493L35.1671 34.5938L38.1086 37.6655L32.9111 36.9493Z" fill="#FDFDFD"/>
<path d="M45.2212 6.58752C58.6494 6.58777 69.5308 17.9514 69.5308 31.9694V73.0084H18.2759V31.9694C18.2759 17.9513 29.161 6.58763 42.5854 6.58752H45.2212ZM60.5835 46.5905C51.284 49.532 44.1675 49.0455 44.1675 49.0455H44.1333C44.1333 49.0455 37.0168 49.532 27.7173 46.5905C27.728 46.5997 37.601 55.1832 38.2192 54.5651C38.8844 53.8999 40.7794 52.1328 40.8081 52.1061L43.1411 54.5651L41.1724 66.2848L44.1479 68.1959H44.1519L47.1284 66.2848L45.1597 54.5651L47.4917 52.1061C47.4917 52.1061 49.6104 54.094 50.0815 54.5651C50.7048 55.1826 60.5835 46.5905 60.5835 46.5905ZM63.0767 25.7321C65.456 11.4097 44.036 19.8745 43.9839 19.8951C43.9839 19.8951 22.5088 11.396 24.8911 25.7321C25.4541 29.1178 26.518 31.2135 27.8892 32.4391C24.1321 33.6149 21.8306 35.2045 21.8306 36.9586C21.8314 40.5778 31.6781 43.5152 43.8228 43.5153C55.9675 43.5153 65.8141 40.5817 65.8149 36.9586C65.8149 35.2427 63.6054 33.6834 59.9897 32.5153C61.4031 31.3011 62.5021 29.1906 63.0767 25.7321Z" fill="#FDFDFD"/>
<path d="M40.7896 52.1382C40.7896 52.1382 41.5211 51.2841 42.4212 50.407C42.4212 50.407 41.4483 52.0769 41.4828 52.8582L40.7896 52.1382Z" fill="#FDFDFD"/>
<path d="M47.5303 52.1382C47.5303 52.1382 46.7988 51.2841 45.8987 50.407C45.8987 50.407 46.8715 52.0769 46.8371 52.8582L47.5303 52.1382Z" fill="#FDFDFD"/>
<path d="M7.74722 43.5695C7.74722 43.5695 4.91677 45.1819 4.26182 46.3501L4.81336 46.5723C4.81336 46.5723 3.24301 48.0315 2.87915 49.261C2.87915 49.261 4.20437 48.5409 4.46099 49.2993C4.7176 50.0576 7.74722 43.5695 7.74722 43.5695Z" fill="#FDFDFD"/>
<path d="M18.3987 33.5877C18.3987 33.5877 3.02849 41.2172 1.18237 62.1296L13.6762 63.1867C13.6762 63.1867 13.8064 59.7281 18.3987 53.3931V33.5839V33.5877Z" fill="#FDFDFD"/>
<path d="M46.7913 73.0978C41.1495 73.0978 69.5345 72.2015 69.5345 72.2015V74.8788C69.5345 74.8788 73.0199 76.4836 73.1348 77.6901C73.1769 78.119 72.0509 78.7319 70.1549 79.2106C70.0171 78.9119 69.6992 78.322 69.3162 78.2799C69.3162 78.2799 69.4502 78.9732 69.3276 79.3983C68.7187 79.5247 68.0484 79.6358 67.3245 79.7238C67.2287 79.5668 66.9913 79.1991 66.6159 78.751C66.6159 78.751 66.5815 79.4481 66.3555 79.8273C63.0348 80.1184 54.9915 80.1873 50.6941 78.8353C50.6941 78.8353 50.7171 77.7399 51.2955 76.3457C51.87 74.9516 52.433 73.094 46.7913 73.094V73.0978Z" fill="#FDFDFD"/>
<path d="M41.0192 73.0978C46.661 73.0978 18.276 72.2015 18.276 72.2015V74.8788C18.276 74.8788 14.2927 76.4836 14.1778 77.6901C14.1357 78.119 15.7558 78.7319 17.6555 79.2106C17.7934 78.9119 18.1113 78.322 18.4943 78.2799C18.4943 78.2799 18.3603 78.9732 18.4829 79.3983C19.0918 79.5247 19.7621 79.6358 20.486 79.7238C20.5818 79.5668 20.8192 79.1991 21.1946 78.751C21.1946 78.751 21.229 79.4481 21.455 79.8273C24.7757 80.1184 32.819 80.1873 37.1164 78.8353C37.1164 78.8353 37.0934 77.7399 36.515 76.3457C35.9405 74.9516 35.3775 73.094 41.0192 73.094V73.0978Z" fill="#FDFDFD"/>
<path d="M45.8259 54.723C45.8259 54.8417 45.079 54.9336 44.1598 54.9336C43.2405 54.9336 42.4937 54.8379 42.4937 54.723C42.4937 54.6081 43.2405 54.5123 44.1598 54.5123C45.079 54.5123 45.8259 54.6081 45.8259 54.723Z" fill="#FDFDFD"/>
<path d="M2.69517 56.5607C2.69517 56.5607 0.0715437 57.9204 0.00260169 61.2487C-0.0663403 64.5809 1.25122 66.1781 2.01341 66.9058C2.77177 67.6335 3.87868 66.9058 3.87868 66.9058C3.87868 66.9058 4.29616 68.1697 6.75509 68.2885C8.63185 68.3804 9.08763 67.465 9.08763 67.465C9.08763 67.465 10.8188 68.2578 12.4926 67.3616C13.8676 66.6262 14.1932 66.0134 13.9978 64.9333L15.2273 65.0137C15.2273 65.0137 17.3224 63.2825 15.1584 59.2647C12.9943 55.247 10.9069 55.0516 10.9069 55.0516L2.68751 56.5569L2.69517 56.5607Z" fill="#FDFDFD"/>
<path d="M69.5344 33.5877C69.5344 33.5877 84.9047 41.2172 86.7508 62.1296L74.257 63.1867C74.257 63.1867 74.1267 59.7281 69.5344 53.3931V33.5839V33.5877Z" fill="#FDFDFD"/>
<path d="M85.2379 56.5607C85.2379 56.5607 87.8616 57.9165 87.9267 61.2487C87.9956 64.5809 86.6781 66.1781 85.9159 66.9058C85.1575 67.6335 84.0506 66.9058 84.0506 66.9058C84.0506 66.9058 83.6331 68.1697 81.1742 68.2885C79.2974 68.3804 78.8417 67.465 78.8417 67.465C78.8417 67.465 77.1104 68.2578 75.4367 67.3616C74.0617 66.6262 73.7361 66.0134 73.9276 64.9333L72.6982 65.0137C72.6982 65.0137 70.6031 63.2825 72.7671 59.2647C74.9311 55.247 77.0185 55.0516 77.0185 55.0516L85.2379 56.5569V56.5607Z" fill="#FDFDFD"/>
</svg>
